<svg xmlns="http://www.w3.org/2000/svg" viewBox="0 0 120 80" role="img" aria-label="jumprope">
  <rect width="120" height="80" fill="#ffffff"/>
  <g transform="translate(60 40) scale(2.6) translate(-12 -12)"><g fill="none" stroke="#33302a" stroke-linecap="round" stroke-linejoin="round" stroke-width="2"><path d="M6 14V8a3 3 0 1 1 6 0v8a3 3 0 0 0 6 0v-6"/><path d="M16 5a2 2 0 0 1 2-2a2 2 0 0 1 2 2v3a2 2 0 0 1-2 2a2 2 0 0 1-2-2zM4 16a2 2 0 0 1 2-2a2 2 0 0 1 2 2v3a2 2 0 0 1-2 2a2 2 0 0 1-2-2z"/></g></g>
</svg>
