<svg xmlns="http://www.w3.org/2000/svg" viewBox="0 0 120 80" role="img" aria-label="ski">
  <rect width="120" height="80" fill="#ffffff"/>
  <g transform="translate(60 40) scale(2.6) translate(-12 -12)"><g fill="none" stroke="#33302a" stroke-linecap="round" stroke-linejoin="round" stroke-width="2"><path d="M17 17.5L12 13V7l5 4M7 17.5l5-4.5"/><path d="m15.103 21.58l6.762-14.502a2 2 0 0 0-.968-2.657m-12 17.159L2.135 7.077a2 2 0 0 1 .968-2.657M7 11l5-4m-1.993-3a2 2 0 1 0 4 0a2 2 0 1 0-4 0"/></g></g>
</svg>
