<svg xmlns="http://www.w3.org/2000/svg" viewBox="0 0 120 80" role="img" aria-label="swim">
  <rect width="120" height="80" fill="#ffffff"/>
  <g transform="translate(60 40) scale(2.6) translate(-12 -12)"><path fill="none" stroke="#33302a" stroke-linecap="round" stroke-linejoin="round" stroke-width="2" d="M15 9a1 1 0 1 0 2 0a1 1 0 1 0-2 0m-9 2l4-2l3.5 3l-1.5 2m-9 2.75A2.4 2.4 0 0 0 4 17a2.4 2.4 0 0 0 2-1a2.4 2.4 0 0 1 2-1a2.4 2.4 0 0 1 2 1a2.4 2.4 0 0 0 2 1a2.4 2.4 0 0 0 2-1a2.4 2.4 0 0 1 2-1a2.4 2.4 0 0 1 2 1a2.4 2.4 0 0 0 2 1a2.4 2.4 0 0 0 1-.25"/></g>
</svg>
